<svg width="969" height="307" viewBox="0 0 969 307" fill="none" xmlns="http://www.w3.org/2000/svg">
<g clip-path="url(#clip0_16_950)">
<path d="M167.208 113.381H12.2269C5.83984 113.381 0.662109 118.561 0.662109 124.951C0.662109 131.341 5.83984 136.522 12.2269 136.522H167.208C173.595 136.522 178.773 131.341 178.773 124.951C178.773 118.561 173.595 113.381 167.208 113.381Z" fill="#3E3A39"/>
<path d="M364.564 113.381H209.583C203.196 113.381 198.019 118.561 198.019 124.951C198.019 131.341 203.196 136.522 209.583 136.522H364.564C370.951 136.522 376.129 131.341 376.129 124.951C376.129 118.561 370.951 113.381 364.564 113.381Z" fill="#3E3A39"/>
<path d="M561.942 113.381H406.961C400.574 113.381 395.396 118.561 395.396 124.951C395.396 131.341 400.574 136.522 406.961 136.522H561.942C568.329 136.522 573.507 131.341 573.507 124.951C573.507 118.561 568.329 113.381 561.942 113.381Z" fill="#3E3A39"/>
<path d="M759.299 113.381H604.318C597.931 113.381 592.753 118.561 592.753 124.951C592.753 131.341 597.931 136.522 604.318 136.522H759.299C765.686 136.522 770.863 131.341 770.863 124.951C770.863 118.561 765.686 113.381 759.299 113.381Z" fill="#F9F8ED"/>
<path d="M956.655 113.381H801.674C795.287 113.381 790.109 118.561 790.109 124.951C790.109 131.341 795.287 136.522 801.674 136.522H956.655C963.042 136.522 968.22 131.341 968.22 124.951C968.22 118.561 963.042 113.381 956.655 113.381Z" fill="#F9F8ED"/>
<path d="M167.208 170.207H12.2269C5.83984 170.207 0.662109 175.387 0.662109 181.777C0.662109 188.168 5.83984 193.348 12.2269 193.348H167.208C173.595 193.348 178.773 188.168 178.773 181.777C178.773 175.387 173.595 170.207 167.208 170.207Z" fill="#3E3A39"/>
<path d="M364.564 170.207H209.583C203.196 170.207 198.019 175.387 198.019 181.777C198.019 188.168 203.196 193.348 209.583 193.348H364.564C370.951 193.348 376.129 188.168 376.129 181.777C376.129 175.387 370.951 170.207 364.564 170.207Z" fill="#3E3A39"/>
<path d="M561.942 170.207H406.961C400.574 170.207 395.396 175.387 395.396 181.777C395.396 188.168 400.574 193.348 406.961 193.348H561.942C568.329 193.348 573.507 188.168 573.507 181.777C573.507 175.387 568.329 170.207 561.942 170.207Z" fill="#3E3A39"/>
<path d="M759.299 170.207H604.318C597.931 170.207 592.753 175.387 592.753 181.777C592.753 188.168 597.931 193.348 604.318 193.348H759.299C765.686 193.348 770.863 188.168 770.863 181.777C770.863 175.387 765.686 170.207 759.299 170.207Z" fill="#F9F8ED"/>
<path d="M956.655 170.207H801.674C795.287 170.207 790.109 175.387 790.109 181.777C790.109 188.168 795.287 193.348 801.674 193.348H956.655C963.042 193.348 968.22 188.168 968.22 181.777C968.22 175.387 963.042 170.207 956.655 170.207Z" fill="#F9F8ED"/>
<path d="M167.208 227.033H12.2269C5.83984 227.033 0.662109 232.213 0.662109 238.604C0.662109 244.994 5.83984 250.174 12.2269 250.174H167.208C173.595 250.174 178.773 244.994 178.773 238.604C178.773 232.213 173.595 227.033 167.208 227.033Z" fill="#3E3A39"/>
<path d="M364.564 227.033H209.583C203.196 227.033 198.019 232.213 198.019 238.604C198.019 244.994 203.196 250.174 209.583 250.174H364.564C370.951 250.174 376.129 244.994 376.129 238.604C376.129 232.213 370.951 227.033 364.564 227.033Z" fill="#3E3A39"/>
<path d="M561.942 227.033H406.961C400.574 227.033 395.396 232.213 395.396 238.604C395.396 244.994 400.574 250.174 406.961 250.174H561.942C568.329 250.174 573.507 244.994 573.507 238.604C573.507 232.213 568.329 227.033 561.942 227.033Z" fill="#3E3A39"/>
<path d="M759.299 227.033H604.318C597.931 227.033 592.753 232.213 592.753 238.604C592.753 244.994 597.931 250.174 604.318 250.174H759.299C765.686 250.174 770.863 244.994 770.863 238.604C770.863 232.213 765.686 227.033 759.299 227.033Z" fill="#3E3A39"/>
<path d="M956.655 227.033H801.674C795.287 227.033 790.109 232.213 790.109 238.604C790.109 244.994 795.287 250.174 801.674 250.174H956.655C963.042 250.174 968.22 244.994 968.22 238.604C968.22 232.213 963.042 227.033 956.655 227.033Z" fill="#F9F8ED"/>
<path d="M167.208 283.838H12.2269C5.83984 283.838 0.662109 289.018 0.662109 295.408C0.662109 301.798 5.83984 306.979 12.2269 306.979H167.208C173.595 306.979 178.773 301.798 178.773 295.408C178.773 289.018 173.595 283.838 167.208 283.838Z" fill="#3E3A39"/>
<path d="M364.564 283.838H209.583C203.196 283.838 198.019 289.018 198.019 295.408C198.019 301.798 203.196 306.979 209.583 306.979H364.564C370.951 306.979 376.129 301.798 376.129 295.408C376.129 289.018 370.951 283.838 364.564 283.838Z" fill="#3E3A39"/>
<path d="M561.942 283.838H406.961C400.574 283.838 395.396 289.018 395.396 295.408C395.396 301.798 400.574 306.979 406.961 306.979H561.942C568.329 306.979 573.507 301.798 573.507 295.408C573.507 289.018 568.329 283.838 561.942 283.838Z" fill="#F9F8ED"/>
<path d="M759.299 283.838H604.318C597.931 283.838 592.753 289.018 592.753 295.408C592.753 301.798 597.931 306.979 604.318 306.979H759.299C765.686 306.979 770.863 301.798 770.863 295.408C770.863 289.018 765.686 283.838 759.299 283.838Z" fill="#F9F8ED"/>
<path d="M956.655 283.838H801.674C795.287 283.838 790.109 289.018 790.109 295.408C790.109 301.798 795.287 306.979 801.674 306.979H956.655C963.042 306.979 968.22 301.798 968.22 295.408C968.22 289.018 963.042 283.838 956.655 283.838Z" fill="#F9F8ED"/>
</g>
<defs>
<clipPath id="clip0_16_950">
<rect width="968.118" height="306.148" fill="white" transform="translate(0.662109 0.851807)"/>
</clipPath>
</defs>
</svg>
