<svg width="997" height="17" viewBox="0 0 997 17" fill="none" xmlns="http://www.w3.org/2000/svg">
<path d="M596.443 8.31226H792.391" stroke="#F9F8ED" stroke-miterlimit="10"/>
<path d="M792.99 8.31226H988.938" stroke="#F9F8ED" stroke-miterlimit="10"/>
<path d="M8.57812 8.31226H400.496" stroke="#F9F8ED" stroke-miterlimit="10"/>
<path d="M8.57787 16.0475C12.8461 16.0475 16.3061 12.5843 16.3061 8.31218C16.3061 4.04011 12.8461 0.576904 8.57787 0.576904C4.30967 0.576904 0.849609 4.04011 0.849609 8.31218C0.849609 12.5843 4.30967 16.0475 8.57787 16.0475Z" fill="#F9F8ED"/>
<path d="M400.496 16.0472C404.764 16.0472 408.224 12.584 408.224 8.31194C408.224 4.03986 404.764 0.57666 400.496 0.57666C396.228 0.57666 392.768 4.03986 392.768 8.31194C392.768 12.584 396.228 16.0472 400.496 16.0472Z" fill="#3E3A39"/>
<path d="M596.443 16.0472C600.711 16.0472 604.171 12.584 604.171 8.31194C604.171 4.03986 600.711 0.57666 596.443 0.57666C592.175 0.57666 588.715 4.03986 588.715 8.31194C588.715 12.584 592.175 16.0472 596.443 16.0472Z" fill="#3E3A39"/>
<path d="M204.526 16.0472C208.794 16.0472 212.254 12.584 212.254 8.31194C212.254 4.03986 208.794 0.57666 204.526 0.57666C200.258 0.57666 196.798 4.03986 196.798 8.31194C196.798 12.584 200.258 16.0472 204.526 16.0472Z" fill="#F9F8ED"/>
<path d="M792.391 16.0472C796.66 16.0472 800.12 12.584 800.12 8.31194C800.12 4.03986 796.66 0.57666 792.391 0.57666C788.123 0.57666 784.663 4.03986 784.663 8.31194C784.663 12.584 788.123 16.0472 792.391 16.0472Z" fill="#F9F8ED"/>
<path d="M988.938 16.0472C993.206 16.0472 996.666 12.584 996.666 8.31194C996.666 4.03986 993.206 0.57666 988.938 0.57666C984.67 0.57666 981.21 4.03986 981.21 8.31194C981.21 12.584 984.67 16.0472 988.938 16.0472Z" fill="#F9F8ED"/>
<path d="M400.495 8.31226H596.443" stroke="#3E3A39" stroke-miterlimit="10"/>
</svg>
